inDegrees=no
num_controls=7
num_derivatives=13
num_iterations=106
num_multipliers=7
num_parameters=0
num_slacks=7
num_states=26
objective=4.851816
objective_accelerations=0.473839
objective_balance=0.021183
objective_effort=0.137171
objective_height=4.120856
objective_ligament=0.098766
solver_duration=1166.118711
status=Solve_Succeeded
success=true
DataType=double
version=3
OpenSimVersion=4.4-2022-07-23-0e9fedc
endheader
time	/jointset/ground_pelvis/pelvis_tilt/value	/jointset/ground_pelvis/pelvis_tx/value	/jointset/ground_pelvis/pelvis_ty/value	/jointset/hip_l/hip_flexion_l/value	/jointset/hip_l/hip_adduction_l/value	/jointset/hip_l/hip_rotation_l/value	/jointset/back/lumbar_extension/value	/jointset/patellofemoral_l/patellar_flexion_l/value	/jointset/knee_l/knee_flexion_l/value	/jointset/knee_l/knee_adduction_l/value	/jointset/knee_l/knee_rotation_l/value	/jointset/ankle_l/ankle_angle_l/value	/jointset/subtalar_l/subtalar_angle_l/value	/jointset/ground_pelvis/pelvis_tilt/speed	/jointset/ground_pelvis/pelvis_tx/speed	/jointset/ground_pelvis/pelvis_ty/speed	/jointset/hip_l/hip_flexion_l/speed	/jointset/hip_l/hip_adduction_l/speed	/jointset/hip_l/hip_rotation_l/speed	/jointset/back/lumbar_extension/speed	/jointset/patellofemoral_l/patellar_flexion_l/speed	/jointset/knee_l/knee_flexion_l/speed	/jointset/knee_l/knee_adduction_l/speed	/jointset/knee_l/knee_rotation_l/speed	/jointset/ankle_l/ankle_angle_l/speed	/jointset/subtalar_l/subtalar_angle_l/speed	/forceset/tau_hip_flexion_l	/forceset/tau_hip_adduction_l	/forceset/tau_hip_rotation_l	/forceset/tau_knee_flexion_l	/forceset/tau_ankle_angle_l	/forceset/tau_subtalar_angle_l	/forceset/tau_lumbar_extension	lambda_cid13_p0	lambda_cid13_p1	lambda_cid13_p2	lambda_cid13_p3	lambda_cid13_p4	lambda_cid13_p5	lambda_cid14_p0	/jointset/ground_pelvis/pelvis_tilt/accel	/jointset/ground_pelvis/pelvis_tx/accel	/jointset/ground_pelvis/pelvis_ty/accel	/jointset/hip_l/hip_flexion_l/accel	/jointset/hip_l/hip_adduction_l/accel	/jointset/hip_l/hip_rotation_l/accel	/jointset/back/lumbar_extension/accel	/jointset/patellofemoral_l/patellar_flexion_l/accel	/jointset/knee_l/knee_flexion_l/accel	/jointset/knee_l/knee_adduction_l/accel	/jointset/knee_l/knee_rotation_l/accel	/jointset/ankle_l/ankle_angle_l/accel	/jointset/subtalar_l/subtalar_angle_l/accel	gamma_cid13_p0	gamma_cid13_p1	gamma_cid13_p2	gamma_cid13_p3	gamma_cid13_p4	gamma_cid13_p5	gamma_cid14_p0
0	0.04581447145375849	0.109016385508685	0.9028107290481121	0.1266917050730164	-0.3704694508743104	-0.2384145739735159	-0.2144974744115991	0.2051547269257258	0.2051547269256735	-0.1745316929848901	-0.1731012200702014	0.09024399430361882	0.07872833243231514	0	0	0	0	0	0	0	0	0	0	0	0	0	0.1198166814477674	-0.09215250473761991	-0.01564155703933478	-0.2741099844096139	0.2263233500195971	-0.07095992162375257	-0.04791370764140908	43.00109738365622	24.53185600149781	-5.612026941667168	-37.11564234887294	-443.0476239062639	-71.5313329211473	-26.70014089906403	-2.451020030731879	-0.3678853816907273	-0.6612908488361153	8.481364914562388	-0.02808086002848544	2.960060306180932	-3.233003268745323	8.750618903373018	8.750618903372674	2.19978611025341	-0.3766513396956718	3.686238598730531	1.039058392568059	1.316794989675593e-08	5.299273842110992e-07	-1.449210726701306e-07	4.658902645837896e-08	1.376328306645313e-08	2.843044209640559e-07	7.546053260912148e-08
0.01	0.04569779303818294	0.1089979438760273	0.9027786695618737	0.127103830623519	-0.3704698781922052	-0.2382594387264121	-0.2146618446976575	0.2055812619892064	0.2055812619890708	-0.1744231248618683	-0.1731088048516512	0.09042428686378851	0.07878004914743635	-0.02323744832437077	-0.003712936628422476	-0.00639221773455927	0.08210105046426835	-9.261941625237646e-05	0.0309124058233972	-0.03263574814506114	0.08489879301612321	0.08489879301612037	0.02157989150521764	-0.001473881941451343	0.03582615805069246	0.01026928265388757	0.1159107204771854	-0.09847103468086604	-0.01452812975261043	-0.2677308192551553	0.2142992755386292	-0.06177741799434425	-0.04505756396795613	39.61562427679945	20.76782838408204	-4.590635457503415	-34.70425183735309	-443.6457655179508	-78.81741551872668	-26.69932570507837	-2.245370467017938	-0.3766800033774731	-0.6252325559530658	8.025867128275863	-0.0009789103202575318	3.139670729318689	-3.243114225715412	8.298261459346987	8.298261459346726	2.117101161751416	-0.02633059194438919	3.495966515911292	1.009687925616326	1.513327175968346e-08	7.571013872151209e-07	-1.525590323462655e-07	7.191663039890501e-08	-1.084162371901644e-07	3.283693806318779e-07	1.10436127967106e-07
0.02	0.04535168749257593	0.1089416364370897	0.9026832788342524	0.128327245081821	-0.3704714569898462	-0.2377986114192982	-0.2151454231928365	0.2068445353744335	0.2068445353744221	-0.1741027557256714	-0.1731298432468477	0.09095587342599402	0.07893222363386078	-0.04588542599773211	-0.007573161255984697	-0.01266624827659655	0.1622577815651872	-0.0002302959483738951	0.06113841200275428	-0.06384164182313329	0.1673476643768546	0.1673476643768564	0.0423602026542677	-0.002690722705892251	0.07025880040828131	0.02009155426046661	0.1120047595067425	-0.1047895646240748	-0.01341470246479996	-0.2613516541007564	0.2022752010577238	-0.05259491436488994	-0.04220142029442917	36.27062776093809	17.01100278978699	-3.586715256332229	-32.36168423307014	-443.5378532167217	-85.93655809289201	-26.69669385752794	-2.333125900528814	-0.3973429815198325	-0.6376534103316496	8.092501041892836	-0.03709228320214165	2.8227803773728	-2.947032375346948	8.260634572294894	8.260634572296048	2.039870039020276	-0.3252431042937832	3.407535460108532	0.9496561831061521	1.709859362261098e-08	9.842753902191426e-07	-1.601969920224004e-07	9.724423433943106e-08	-2.305957574467819e-07	3.724343402996999e-07	1.454117233250905e-07
0.03	0.04478179855961396	0.108846065663944	0.9025255369893849	0.1303429574221612	-0.3704746629037472	-0.2370406673034595	-0.215933809280803	0.2089207985479042	0.2089207985479934	-0.1735785624834998	-0.1731634676811665	0.09182510543744954	0.07918050230606799	-0.06799010184917942	-0.01155718980208752	-0.01887734497506569	0.240553859556891	-0.0004188210344123516	0.090320034326204	-0.09361751481403445	0.247515195364596	0.2475151953645824	0.06232862440396845	-0.003994474476134451	0.1033718892235166	0.02949762603533876	0.1080830914460806	-0.09946431815357035	-0.01235447242223272	-0.2556268917277226	0.1941934877888767	-0.05403181214372865	-0.03935629174592623	33.56703426810525	17.91564942786014	-3.51074155373693	-30.2438575530382	-443.614060238614	-83.22329667217618	-26.69206731674579	-2.133790663786595	-0.4013427074510882	-0.6121680539542199	7.648541373356898	-0.01104282044385769	2.946348430660153	-2.960155615931835	7.836316892542957	7.836316892539714	1.953002086440295	-0.02703558680981825	3.230871087790899	0.9259628491935089	1.560018870524199e-08	1.065203397863064e-06	-1.502395792292403e-07	1.091601294027653e-07	-3.209458204642866e-07	3.708218046878491e-07	1.587746401488717e-07
